<?xml version="1.0" encoding="UTF-8"?>
<svg viewBox="0 0 1300 850" xmlns="http://www.w3.org/2000/svg">
  <defs>
    <marker id="arrowhead" markerWidth="10" markerHeight="8" refX="10" refY="4" orient="auto">
      <polygon points="0 0, 10 4, 0 8" fill="#3498db"/>
    </marker>
    <marker id="arrowhead-green" markerWidth="10" markerHeight="8" refX="10" refY="4" orient="auto">
      <polygon points="0 0, 10 4, 0 8" fill="#27ae60"/>
    </marker>
    <marker id="arrowhead-red" markerWidth="10" markerHeight="8" refX="10" refY="4" orient="auto">
      <polygon points="0 0, 10 4, 0 8" fill="#e74c3c"/>
    </marker>
    <marker id="arrowhead-purple" markerWidth="10" markerHeight="8" refX="10" refY="4" orient="auto">
      <polygon points="0 0, 10 4, 0 8" fill="#9b59b6"/>
    </marker>
    <marker id="arrowhead-gray" markerWidth="10" markerHeight="8" refX="10" refY="4" orient="auto">
      <polygon points="0 0, 10 4, 0 8" fill="#95a5a6"/>
    </marker>
    <marker id="arrowhead-orange" markerWidth="10" markerHeight="8" refX="10" refY="4" orient="auto">
      <polygon points="0 0, 10 4, 0 8" fill="#f39c12"/>
    </marker>
  </defs>

  <rect width="1300" height="850" fill="#ffffff"/>

  <text x="650" y="30" text-anchor="middle" font-size="26" font-weight="600" fill="#2c3e50">
    Gen AI Transaction Classification System Architecture
  </text>

  <!-- Input CSV -->
  <g transform="translate(50, 80)">
    <rect x="0" y="0" width="120" height="70" fill="#e74c3c" rx="8" stroke="#c0392b" stroke-width="2"/>
    <text x="60" y="25" text-anchor="middle" font-size="12" font-weight="600" fill="white">Transaction CSV</text>
    <text x="60" y="40" text-anchor="middle" font-size="10" fill="white">Description, Native/Vendor,</text>
    <text x="60" y="52" text-anchor="middle" font-size="10" fill="white">Channel, Category, IFSC</text>
    <text x="60" y="-15" text-anchor="middle" font-size="12" fill="#7f8c8d">Input Data</text>
  </g>

  <!-- Vector Database -->
  <g transform="translate(250, 80)">
    <rect x="0" y="0" width="90" height="70" fill="#6f42c1" rx="8" stroke="#5a2d91" stroke-width="2"/>
    <text x="45" y="30" text-anchor="middle" font-size="14" font-weight="600" fill="white">Qdrant</text>
    <text x="45" y="45" text-anchor="middle" font-size="14" font-weight="600" fill="white">Vector DB</text>
    <text x="45" y="-15" text-anchor="middle" font-size="12" fill="#7f8c8d">Embeddings Storage</text>
  </g>

  <!-- Arrow from CSV to Vector DB -->
  <text x="195" y="105" font-size="11" fill="#7f8c8d">embedding</text>
  <path d="M 170 115 L 250 115" stroke="#3498db" stroke-width="2" fill="none" marker-end="url(#arrowhead)"/>

  <!-- First Level Agent (Primary Classification) -->
  <g transform="translate(420, 80)">
    <rect x="0" y="0" width="120" height="70" fill="#3498db" rx="8" stroke="#2980b9" stroke-width="2"/>
    <circle cx="30" cy="25" r="6" fill="white"/>
    <circle cx="60" cy="25" r="6" fill="white"/>
    <circle cx="90" cy="25" r="6" fill="white"/>
    <text x="60" y="50" text-anchor="middle" font-size="12" font-weight="600" fill="white">First-Level Agent</text>
    <text x="60" y="62" text-anchor="middle" font-size="10" fill="white">Primary Classification</text>
    <text x="60" y="-15" text-anchor="middle" font-size="12" fill="#7f8c8d">AI Agent</text>
  </g>

  <!-- Arrow from Vector DB to First Level Agent -->
  <text x="360" y="105" font-size="11" fill="#7f8c8d">vector query</text>
  <path d="M 340 115 L 420 115" stroke="#3498db" stroke-width="2" fill="none" marker-end="url(#arrowhead)"/>

  <!-- Master Vector Database -->
  <g transform="translate(600, 80)">
    <rect x="0" y="0" width="120" height="70" fill="#2ecc71" rx="8" stroke="#27ae60" stroke-width="2"/>
    <rect x="30" y="20" width="12" height="8" fill="white"/>
    <rect x="48" y="20" width="12" height="8" fill="white"/>
    <rect x="66" y="20" width="12" height="8" fill="white"/>
    <rect x="30" y="32" width="12" height="8" fill="white"/>
    <rect x="48" y="32" width="12" height="8" fill="white"/>
    <rect x="66" y="32" width="12" height="8" fill="white"/>
    <text x="60" y="55" text-anchor="middle" font-size="12" font-weight="600" fill="white">Master Vector Database</text>
    <text x="60" y="-15" text-anchor="middle" font-size="12" fill="#7f8c8d">Reference Data</text>
  </g>

  <!-- Arrow from First Level Agent to Master Data -->
  <text x="560" y="105" font-size="11" fill="#7f8c8d">lookup</text>
  <path d="M 540 115 L 600 115" stroke="#3498db" stroke-width="2" fill="none" marker-end="url(#arrowhead)"/>

  <!-- Primary Match Decision -->
  <g transform="translate(780, 95)">
    <polygon points="40,0 80,30 40,60 0,30" fill="#f39c12"/>
    <text x="40" y="25" text-anchor="middle" font-size="10" font-weight="500" fill="white">Match in</text>
    <text x="40" y="37" text-anchor="middle" font-size="10" font-weight="500" fill="white">Master Data?</text>
  </g>

  <!-- Arrow from Master Data to Decision -->
  <path d="M 720 115 L 780 125" stroke="#3498db" stroke-width="2" fill="none" marker-end="url(#arrowhead)"/>

  <!-- YES path - Direct Classification -->
  <text x="850" y="110" font-size="11" fill="#27ae60" font-weight="600">YES</text>
  <path d="M 860 125 L 920 125 L 920 140 L 1050 140" stroke="#27ae60" stroke-width="3" fill="none" marker-end="url(#arrowhead-green)"/>

  <!-- NO path - Secondary Classification -->
  <text x="810" y="180" font-size="11" fill="#e74c3c" font-weight="600">NO</text>
  <path d="M 820 155 L 820 280 L 470 280 L 470 240" stroke="#e74c3c" stroke-width="2" fill="none" marker-end="url(#arrowhead-red)"/>

  <!-- Vector DB Query Check -->
  <g transform="translate(410, 240)">
    <polygon points="40,0 80,30 40,60 0,30" fill="#9b59b6"/>
    <text x="40" y="20" text-anchor="middle" font-size="9" font-weight="500" fill="white">Similar Pattern</text>
    <text x="40" y="30" text-anchor="middle" font-size="9" font-weight="500" fill="white">in Vector DB?</text>
    <text x="40" y="40" text-anchor="middle" font-size="9" font-weight="500" fill="white">(Optimization)</text>
  </g>

  <!-- Vector DB Query Check - YES path -->
  <text x="320" y="250" font-size="11" fill="#27ae60" font-weight="600">YES</text>
  <path d="M 410 270 L 360 270 L 360 160 L 940 160 L 940 150 L 1050 150" stroke="#27ae60" stroke-width="2" fill="none" marker-end="url(#arrowhead-green)"/>

  <!-- Vector DB Query Check - NO path -->
  <text x="520" y="250" font-size="11" fill="#e74c3c" font-weight="600">NO</text>
  <path d="M 490 270 L 520 270 L 520 340" stroke="#e74c3c" stroke-width="2" fill="none" marker-end="url(#arrowhead-red)"/>

  <!-- Secondary Classification Agent -->
  <g transform="translate(440, 340)">
    <rect x="0" y="0" width="320" height="100" fill="#f8f9fa" rx="12" stroke="#dee2e6" stroke-width="2"/>
    <text x="160" y="20" text-anchor="middle" font-size="14" font-weight="600" fill="#34495e">Secondary Classification Agent</text>
    
    <!-- DuckDuckGo API -->
    <g transform="translate(20, 35)">
      <circle cx="25" cy="25" r="20" fill="#4285f4"/>
      <text x="25" y="30" text-anchor="middle" font-size="14" font-weight="700" fill="white">D</text>
      <text x="25" y="50" text-anchor="middle" font-size="9" fill="#7f8c8d">DuckDuckGo</text>
      <text x="25" y="60" text-anchor="middle" font-size="9" fill="#7f8c8d">API</text>
    </g>
    
    <!-- Entity Analysis -->
    <g transform="translate(90, 35)">
      <rect x="0" y="0" width="210" height="40" fill="white" rx="6" stroke="#6c757d"/>
      <text x="105" y="17" text-anchor="middle" font-size="12" font-weight="600" fill="#34495e">Entity Search &amp; Analysis</text>
      <text x="105" y="32" text-anchor="middle" font-size="10" fill="#6c757d">Channel • Category • IFSC • Description</text>
    </g>
    
    <!-- Processing arrow -->
    <path d="M 65 60 L 90 60" stroke="#3498db" stroke-width="2" fill="none" marker-end="url(#arrowhead)"/>
  </g>

  <!-- Final Classification Decision -->
  <g transform="translate(820, 370)">
    <polygon points="40,0 80,30 40,60 0,30" fill="#f39c12"/>
    <text x="40" y="25" text-anchor="middle" font-size="10" font-weight="500" fill="white">Classification</text>
    <text x="40" y="37" text-anchor="middle" font-size="10" font-weight="500" fill="white">Success?</text>
  </g>

  <!-- Arrow from Secondary Agent to Final Decision -->
  <path d="M 760 390 L 820 400" stroke="#3498db" stroke-width="2" fill="none" marker-end="url(#arrowhead)"/>

  <!-- Knowledge Base & Learning System -->
  <g transform="translate(50, 500)">
    <rect x="0" y="0" width="650" height="180" fill="#f8f9fa" rx="15" stroke="#dee2e6" stroke-width="3"/>
    <text x="325" y="25" text-anchor="middle" font-size="16" font-weight="600" fill="#343a40">Knowledge Base &amp; Learning System</text>
    
    <!-- Prompt Input -->
    <g transform="translate(340, 40)">
      <rect x="0" y="0" width="80" height="35" fill="#e74c3c" rx="6" stroke="#c0392b" stroke-width="2"/>
      <text x="40" y="22" text-anchor="middle" font-size="11" font-weight="600" fill="white">Prompt Input</text>
    </g>
    
    <!-- Master Data Vector DB -->
    <g transform="translate(40, 80)">
      <rect x="0" y="0" width="100" height="50" fill="#6f42c1" rx="8"/>
      <text x="50" y="25" text-anchor="middle" font-size="11" font-weight="600" fill="white">Master Data</text>
      <text x="50" y="37" text-anchor="middle" font-size="11" font-weight="600" fill="white">Vector DB</text>
    </g>
    
    <!-- Search History Vector DB -->
    <g transform="translate(40, 140)">
      <rect x="0" y="0" width="100" height="50" fill="#6f42c1" rx="8"/>
      <text x="50" y="25" text-anchor="middle" font-size="11" font-weight="600" fill="white">Search History</text>
      <text x="50" y="37" text-anchor="middle" font-size="11" font-weight="600" fill="white">Vector DB</text>
    </g>
    
    <!-- Classification Engine -->
    <g transform="translate(180, 110)">
      <rect x="0" y="0" width="100" height="50" fill="#17a2b8" rx="8"/>
      <text x="50" y="28" text-anchor="middle" font-size="12" font-weight="600" fill="white">Classification</text>
      <text x="50" y="42" text-anchor="middle" font-size="12" font-weight="600" fill="white">Engine</text>
    </g>
    
    <!-- RAG System -->
    <g transform="translate(320, 110)">
      <rect x="0" y="0" width="100" height="50" fill="#6c757d" rx="8"/>
      <text x="50" y="28" text-anchor="middle" font-size="12" font-weight="600" fill="white">RAG System</text>
      <text x="50" y="42" text-anchor="middle" font-size="12" font-weight="600" fill="white">Hub</text>
    </g>
    
    <!-- Classification Cache -->
    <g transform="translate(460, 110)">
      <rect x="0" y="0" width="90" height="50" fill="#fd7e14" rx="8"/>
      <text x="45" y="28" text-anchor="middle" font-size="12" font-weight="600" fill="white">Classification</text>
      <text x="45" y="42" text-anchor="middle" font-size="12" font-weight="600" fill="white">Cache</text>
    </g>
    
    <!-- Arrows with proper alignment -->
    <!-- Vector DBs to Classification Engine -->
    <path d="M 140 105 L 180 135" stroke="#3498db" stroke-width="2" fill="none" marker-end="url(#arrowhead)"/>
    <path d="M 140 165 L 180 135" stroke="#3498db" stroke-width="2" fill="none" marker-end="url(#arrowhead)"/>
    
    <!-- Classification Engine to RAG -->
    <path d="M 280 135 L 320 135" stroke="#3498db" stroke-width="2" fill="none" marker-end="url(#arrowhead)"/>
    
    <!-- RAG to Cache -->
    <path d="M 420 135 L 460 135" stroke="#3498db" stroke-width="2" fill="none" marker-end="url(#arrowhead)"/>
    
    <!-- Prompt to RAG -->
    <text x="380" y="90" text-anchor="middle" font-size="9" fill="#7f8c8d">prompt</text>
    <path d="M 380 75 L 380 110" stroke="#3498db" stroke-width="2" fill="none" marker-end="url(#arrowhead)"/>
    
    <!-- Process Labels -->
    <text x="160" y="115" text-anchor="middle" font-size="9" fill="#7f8c8d">retrieve</text>
    <text x="300" y="125" text-anchor="middle" font-size="9" fill="#7f8c8d">process</text>
    <text x="440" y="125" text-anchor="middle" font-size="9" fill="#7f8c8d">cache</text>
  </g>

  <!-- Learning Feedback Loop -->
  <text x="650" y="480" font-size="11" fill="#9b59b6">Learning &amp; Update</text>
  <path d="M 860 430 L 900 430 L 900 480 L 380 480 L 380 500" stroke="#9b59b6" stroke-width="3" fill="none" marker-end="url(#arrowhead-purple)"/>

  <!-- Pattern lookup connection -->
  <text x="180" y="320" font-size="10" fill="#7f8c8d">pattern lookup</text>
  <path d="M 340 500 L 340 360 L 280 360 L 280 270 L 410 270" stroke="#95a5a6" stroke-width="2" fill="none" marker-end="url(#arrowhead-gray)"/>

  <!-- Master data update connections -->
  <text x="520" y="240" font-size="10" fill="#f39c12">update master data</text>
  <path d="M 600 150 L 600 220 L 420 220 L 420 500" stroke="#f39c12" stroke-width="2" fill="none" marker-end="url(#arrowhead-orange)"/>

  <text x="530" y="320" font-size="10" fill="#95a5a6">retrieve master data</text>
  <path d="M 700 150 L 700 340 L 460 340 L 460 500" stroke="#95a5a6" stroke-width="2" fill="none" marker-end="url(#arrowhead-gray)"/>

  <!-- Add direct connection to Master Data Vector DB in Knowledge Base -->
  <path d="M 600 150 L 600 190 L 90 190 L 90 580" stroke="#6f42c1" stroke-width="2" fill="none" marker-end="url(#arrowhead)"/>
  <text x="200" y="180" font-size="10" fill="#6f42c1">master data sync</text>

  <!-- Bidirectional arrow indicator -->
  <path d="M 90 200 L 90 210" stroke="#6f42c1" stroke-width="2" fill="none" marker-end="url(#arrowhead)"/>
  <path d="M 90 210 L 90 200" stroke="#6f42c1" stroke-width="2" fill="none" marker-end="url(#arrowhead)"/>

  <!-- Final Output -->
  <g transform="translate(1050, 150)">
    <rect x="0" y="0" width="200" height="100" fill="#d4edda" stroke="#c3e6cb" stroke-width="3" rx="12"/>
    <text x="100" y="25" text-anchor="middle" font-size="14" font-weight="600" fill="#155724">Classified Output</text>
    <text x="100" y="45" text-anchor="middle" font-size="11" fill="#155724">• Original CSV Data</text>
    <text x="100" y="60" text-anchor="middle" font-size="11" fill="#155724">• + Classification Column</text>
    <text x="100" y="75" text-anchor="middle" font-size="11" fill="#155724">• Enhanced Master Data</text>
    <text x="100" y="90" text-anchor="middle" font-size="11" fill="#155724">• Updated Knowledge Base</text>
  </g>

  <!-- Success path from Final Decision to Output -->
  <text x="920" y="380" font-size="11" fill="#27ae60" font-weight="600">SUCCESS</text>
  <path d="M 900 400 L 960 400 L 960 170 L 1050 170" stroke="#27ae60" stroke-width="3" fill="none" marker-end="url(#arrowhead-green)"/>

  <!-- Process Flow Legend -->
  <g transform="translate(50, 730)">
    <rect x="0" y="0" width="1200" height="90" fill="#f8f9fa" stroke="#e9ecef" stroke-width="2" rx="10"/>
    <text x="20" y="25" font-size="16" font-weight="600" fill="#212529">Transaction Classification Process Flow:</text>
    <text x="30" y="45" font-size="12" fill="#495057">1. <tspan font-weight="600">Primary Classification:</tspan> Match Description/Native fields against Master Vector Database Entity/Keyword → Category</text>
    <text x="30" y="60" font-size="12" fill="#495057">2. <tspan font-weight="600">Vector DB Optimization:</tspan> Check for similar patterns before invoking secondary agent (performance optimization)</text>
    <text x="30" y="75" font-size="12" fill="#495057">3. <tspan font-weight="600">Secondary Classification:</tspan> DuckDuckGo API search analyzing all fields for unknown entities</text>
    <text x="30" y="90" font-size="12" fill="#495057">4. <tspan font-weight="600">Learning Loop:</tspan> Update Master Vector Database and vector database with new classifications for future optimization</text>
  </g>
</svg> 